<svg width="24" height="24" viewBox="0 0 24 24" fill="none" xmlns="http://www.w3.org/2000/svg">
<g id="Component/icon/ic_Achievements">
<g id="iconspace_Medal_25px">
<path id="Combined Shape" fill-rule="evenodd" clip-rule="evenodd" d="M12 16C8.13401 16 5 12.866 5 9C5 5.13401 8.13401 2 12 2C15.866 2 19 5.13401 19 9C19 12.866 15.866 16 12 16ZM17 8.5C17 6.20056 14.8996 4 12.5 4C12.2239 4 12 4.22386 12 4.5C12 4.77614 12.2239 5 12.5 5C14.3366 5 16 6.7427 16 8.5C16 8.77614 16.2239 9 16.5 9C16.7761 9 17 8.77614 17 8.5ZM20.9597 19.3032C21.1011 19.6331 20.8591 20.0001 20.5001 20.0001H17.7072L15.8537 21.8537C15.6123 22.095 15.2055 22.029 15.0529 21.7237L12.7038 17.3448C15.1177 17.1426 17.2269 15.8685 18.5539 14L20.9597 19.3032ZM8.94775 21.7237C8.79513 22.029 8.38831 22.095 8.14699 21.8537L6.29343 20.0001H3.50054C3.14158 20.0001 2.89957 19.6331 3.04097 19.3032L5.50025 14.0006C6.82734 15.8689 8.93658 17.1428 11.3506 17.3449L8.94775 21.7237Z" fill="#92929D"/>
</g>
</g>
</svg>
