<svg width="24" height="24" viewBox="0 0 24 24" fill="none" xmlns="http://www.w3.org/2000/svg">
<g id="Component/icon/ic_Email">
<path id="Shape" fill-rule="evenodd" clip-rule="evenodd" d="M3.99996 4H20C21.6568 4 23 5.34315 23 7V7.42743C23.0001 7.43617 23.0001 7.44489 23 7.45362V18C23 19.6569 21.6568 21 20 21H3.99996C2.34311 21 0.999964 19.6569 0.999964 18V7.45358C0.99985 7.44488 0.99985 7.43618 0.999964 7.42747V7C0.999964 5.34315 2.34311 4 3.99996 4ZM2.99996 9.36205V18C2.99996 18.5523 3.44768 19 3.99996 19H20C20.5522 19 21 18.5523 21 18V9.36205L13.7204 14.4578C12.6874 15.1809 11.3125 15.1809 10.2796 14.4578L2.99996 9.36205ZM20.997 6.9228L12.5734 12.8193C12.2291 13.0603 11.7708 13.0603 11.4265 12.8193L3.0029 6.9228C3.04231 6.40659 3.47366 6 3.99996 6H20C20.5263 6 20.9576 6.40659 20.997 6.9228Z" fill="#92929D"/>
</g>
</svg>
