<svg width="24" height="24" viewBox="0 0 24 24" fill="none" xmlns="http://www.w3.org/2000/svg">
<g id="Component/icon/ic_not visible">
<g id="iconspace_Not Visible_25px">
<path id="Combined Shape" fill-rule="evenodd" clip-rule="evenodd" d="M21.7257 2.26226C21.3655 1.90981 20.7867 1.913 20.4305 2.26943L16.766 5.93583C15.3068 5.15451 13.6854 4.72727 12 4.72727C7.7744 4.72727 3.95107 7.41278 2.07821 11.6311C1.97393 11.866 1.97393 12.134 2.07821 12.3689C2.92417 14.2743 4.16806 15.8669 5.66723 17.0406L2.26706 20.4426C1.90816 20.8017 1.91143 21.3827 2.2743 21.7377C2.63449 22.0902 3.21329 22.087 3.56953 21.7306L7.23397 18.0642C8.69315 18.8455 10.3146 19.2727 12 19.2727C16.2256 19.2727 20.0489 16.5872 21.9218 12.3689C22.0261 12.134 22.0261 11.866 21.9218 11.6311C21.0758 9.72572 19.8319 8.13308 18.3328 6.95939L21.7329 3.55739C22.0918 3.19829 22.0886 2.61733 21.7257 2.26226ZM15.4098 7.29282C14.3421 6.80662 13.1883 6.54545 12 6.54545C8.63761 6.54545 5.55147 8.63644 3.9117 12C4.66301 13.5411 5.71795 14.8151 6.96397 15.7432L8.86405 13.8421C8.54604 13.3018 8.36364 12.6722 8.36364 12C8.36364 9.99169 9.99169 8.36364 12 8.36364C12.6715 8.36364 13.3005 8.54566 13.8404 8.86306L15.4098 7.29282ZM15.1359 10.1579L17.036 8.25683C18.2821 9.18493 19.337 10.4589 20.0883 12C18.4485 15.3636 15.3624 17.4545 12 17.4545C10.8117 17.4545 9.65788 17.1934 8.59023 16.7072L10.1596 15.1369C10.6995 15.4543 11.3285 15.6364 12 15.6364C14.0083 15.6364 15.6364 14.0083 15.6364 12C15.6364 11.3278 15.454 10.6982 15.1359 10.1579ZM12.4629 10.2413C12.3151 10.2025 12.16 10.1818 12 10.1818C10.9958 10.1818 10.1818 10.9958 10.1818 12C10.1818 12.1603 10.2026 12.3158 10.2415 12.4639L12.4629 10.2413ZM11.5371 13.7587L13.7585 11.5361C13.7974 11.6842 13.8182 11.8397 13.8182 12C13.8182 13.0042 13.0042 13.8182 12 13.8182C11.84 13.8182 11.6849 13.7975 11.5371 13.7587Z" fill="#B5B5BE"/>
</g>
</g>
</svg>
