<svg width="24" height="24" viewBox="0 0 24 24" fill="none" xmlns="http://www.w3.org/2000/svg">
<g id="Component/icon/ic_secure">
<g id="iconspace_Private_25px">
<path id="Combined Shape" fill-rule="evenodd" clip-rule="evenodd" d="M17.6923 10.2353H19.4231C19.7417 10.2353 20 10.4987 20 10.8235V21.4118C20 21.7366 19.7417 22 19.4231 22H5.57692C5.2583 22 5 21.7366 5 21.4118V10.8235C5 10.4987 5.2583 10.2353 5.57692 10.2353H7.30769V7.58824C7.30769 4.50194 9.47305 2 12.5 2C15.5269 2 17.6923 4.50194 17.6923 7.58824V10.2353ZM15.9615 10.2353V7.58824C15.9615 5.47656 14.5711 3.76471 12.5 3.76471C10.4289 3.76471 9.03846 5.47656 9.03846 7.58824V10.2353H15.9615Z" fill="#92929D"/>
</g>
</g>
</svg>
