<svg width="24" height="24" viewBox="0 0 24 24" fill="none" xmlns="http://www.w3.org/2000/svg">
<g id="Component/icon/ic_secure Outline">
<g id="iconspace_Private_25px">
<path id="Shape" fill-rule="evenodd" clip-rule="evenodd" d="M7.0256 8.92373V7.09416C7.0256 4.28375 9.28121 2 12.0705 2C14.8598 2 17.1154 4.28375 17.1154 7.09416V8.92373H18.5433C19.355 8.92373 20 9.58962 20 10.3957V20.528C20 21.3341 19.355 22 18.5433 22H5.45667C4.64504 22 4 21.3341 4 20.528V10.3957C4 9.58962 4.64504 8.92373 5.45667 8.92373H7.0256ZM5.82278 10.7419V20.1818H18.1772V10.7419H5.82278ZM15.2926 8.89571V7.09416C15.2926 5.28188 13.847 3.81818 12.0705 3.81818C10.294 3.81818 8.84838 5.28188 8.84838 7.09416V8.89571H15.2926Z" fill="#92929D"/>
</g>
</g>
</svg>
