<svg width="24" height="24" viewBox="0 0 24 24" fill="none" xmlns="http://www.w3.org/2000/svg">
<g id="Component/icon/ic_World">
<path id="Shape" fill-rule="evenodd" clip-rule="evenodd" d="M13.0377 7.9746V11H15.9738C15.9113 9.81198 15.7393 8.69949 15.4857 7.70394C14.6997 7.8418 13.8791 7.93323 13.0377 7.9746ZM11.0377 7.97817C10.1699 7.93864 9.32374 7.84591 8.51427 7.70393C8.26072 8.69949 8.08873 9.81198 8.02618 11H11.0377V7.97817V7.97817ZM13.0377 15.4187C13.9278 15.4625 14.7945 15.5622 15.6218 15.7138C15.8009 14.8733 15.9232 13.9614 15.9738 13H13.0377V15.4187ZM11.0377 15.4151V13H8.02618C8.07679 13.9614 8.19908 14.8733 8.37825 15.7138C9.22878 15.558 10.1211 15.4569 11.0377 15.4151V15.4151ZM13.0377 17.4214V20.6577C13.8152 20.1441 14.5325 19.0794 15.0665 17.6465C14.4167 17.5357 13.7369 17.4595 13.0377 17.4214ZM11.0377 17.4175C10.3119 17.4541 9.60657 17.5317 8.9335 17.6465C9.48472 19.1257 10.2313 20.2124 11.0377 20.7056V17.4175ZM13.0377 5.9719C13.6548 5.9383 14.2568 5.87502 14.8364 5.78441C14.3343 4.63851 13.7084 3.78536 13.0377 3.34233V5.9719ZM11.0377 5.97585V3.29436C10.3386 3.72198 9.68444 4.59567 9.16358 5.7844C9.76672 5.87869 10.3942 5.9434 11.0377 5.97585ZM3.05493 11H6.02331C6.08564 9.66991 6.27155 8.40289 6.56376 7.24514C5.94076 7.05779 5.35285 6.83766 4.80902 6.58714C3.86225 7.84293 3.23682 9.35463 3.05493 11ZM3.05493 13C3.21544 14.452 3.72139 15.8 4.48877 16.9598C5.08216 16.6635 5.73396 16.4053 6.43124 16.1887C6.21501 15.1884 6.07562 14.1164 6.02331 13H3.05493ZM20.9451 11C20.7632 9.35462 20.1377 7.84293 19.191 6.58713C18.6471 6.83767 18.0592 7.05779 17.4362 7.24514C17.7284 8.40289 17.9144 9.66991 17.9767 11H20.9451ZM20.9451 13H17.9767C17.9244 14.1164 17.785 15.1884 17.5688 16.1887C18.266 16.4053 18.9178 16.6635 19.5112 16.9598C20.2786 15.8 20.7846 14.452 20.9451 13ZM7.8023 19.9632C7.48915 19.406 7.21136 18.7858 6.97333 18.1143C6.56714 18.2423 6.18177 18.3859 5.82103 18.5438C6.41161 19.1016 7.07768 19.5804 7.8023 19.9632ZM16.1977 19.9632C16.9223 19.5804 17.5884 19.1016 18.1789 18.5438C17.8182 18.3859 17.4328 18.2423 17.0267 18.1143C16.7886 18.7858 16.5108 19.406 16.1977 19.9632ZM7.8023 4.03684C7.26398 4.3212 6.75798 4.65854 6.29124 5.04193C6.57499 5.15037 6.87152 5.25058 7.17926 5.34205C7.36728 4.87688 7.57552 4.44033 7.8023 4.03684ZM16.1977 4.03684C16.4245 4.44033 16.6327 4.87688 16.8207 5.34204C17.1284 5.25057 17.425 5.15036 17.7087 5.04191C17.242 4.65853 16.736 4.32119 16.1977 4.03684ZM12 23C5.92487 23 1 18.0751 1 12C1 5.92487 5.92487 1 12 1C18.0751 1 23 5.92487 23 12C23 18.0751 18.0751 23 12 23Z" fill="#92929D"/>
</g>
</svg>
