<svg width="168" height="49" viewBox="0 0 168 49" fill="none" xmlns="http://www.w3.org/2000/svg">
<g id="Logo">
<path id="Square" d="M66.3 33.21C64.84 33.21 63.52 32.96 62.34 32.46C61.18 31.96 60.26 31.24 59.58 30.3C58.9 29.36 58.55 28.25 58.53 26.97H63.03C63.09 27.83 63.39 28.51 63.93 29.01C64.49 29.51 65.25 29.76 66.21 29.76C67.19 29.76 67.96 29.53 68.52 29.07C69.08 28.59 69.36 27.97 69.36 27.21C69.36 26.59 69.17 26.08 68.79 25.68C68.41 25.28 67.93 24.97 67.35 24.75C66.79 24.51 66.01 24.25 65.01 23.97C63.65 23.57 62.54 23.18 61.68 22.8C60.84 22.4 60.11 21.81 59.49 21.03C58.89 20.23 58.59 19.17 58.59 17.85C58.59 16.61 58.9 15.53 59.52 14.61C60.14 13.69 61.01 12.99 62.13 12.51C63.25 12.01 64.53 11.76 65.97 11.76C68.13 11.76 69.88 12.29 71.22 13.35C72.58 14.39 73.33 15.85 73.47 17.73H68.85C68.81 17.01 68.5 16.42 67.92 15.96C67.36 15.48 66.61 15.24 65.67 15.24C64.85 15.24 64.19 15.45 63.69 15.87C63.21 16.29 62.97 16.9 62.97 17.7C62.97 18.26 63.15 18.73 63.51 19.11C63.89 19.47 64.35 19.77 64.89 20.01C65.45 20.23 66.23 20.49 67.23 20.79C68.59 21.19 69.7 21.59 70.56 21.99C71.42 22.39 72.16 22.99 72.78 23.79C73.4 24.59 73.71 25.64 73.71 26.94C73.71 28.06 73.42 29.1 72.84 30.06C72.26 31.02 71.41 31.79 70.29 32.37C69.17 32.93 67.84 33.21 66.3 33.21ZM76.2712 24.66C76.2712 23 76.6113 21.53 77.2913 20.25C77.9913 18.95 78.9313 17.94 80.1113 17.22C81.2913 16.5 82.5913 16.14 84.0113 16.14C85.1913 16.14 86.2313 16.37 87.1313 16.83C88.0513 17.27 88.7913 17.84 89.3513 18.54V16.38H93.5813V40.92H89.3513V30.72C88.7913 31.44 88.0413 32.04 87.1013 32.52C86.1613 33 85.1013 33.24 83.9213 33.24C82.5213 33.24 81.2313 32.88 80.0513 32.16C78.8913 31.42 77.9713 30.4 77.2913 29.1C76.6113 27.8 76.2712 26.32 76.2712 24.66ZM89.3513 24.69C89.3513 23.67 89.1413 22.79 88.7213 22.05C88.3013 21.31 87.7513 20.75 87.0713 20.37C86.4113 19.99 85.7013 19.8 84.9413 19.8C84.2013 19.8 83.4913 19.99 82.8113 20.37C82.1513 20.75 81.6113 21.31 81.1913 22.05C80.7713 22.77 80.5613 23.64 80.5613 24.66C80.5613 25.68 80.7713 26.57 81.1913 27.33C81.6113 28.07 82.1513 28.63 82.8113 29.01C83.4913 29.39 84.2013 29.58 84.9413 29.58C85.7013 29.58 86.4113 29.39 87.0713 29.01C87.7513 28.63 88.3013 28.07 88.7213 27.33C89.1413 26.59 89.3513 25.71 89.3513 24.69ZM113.373 16.38V33H109.143V30.9C108.603 31.62 107.893 32.19 107.013 32.61C106.153 33.01 105.213 33.21 104.193 33.21C102.893 33.21 101.743 32.94 100.743 32.4C99.7433 31.84 98.9533 31.03 98.3733 29.97C97.8133 28.89 97.5333 27.61 97.5333 26.13V16.38H101.733V25.53C101.733 26.85 102.063 27.87 102.723 28.59C103.383 29.29 104.283 29.64 105.423 29.64C106.583 29.64 107.493 29.29 108.153 28.59C108.813 27.87 109.143 26.85 109.143 25.53V16.38H113.373ZM116.437 24.63C116.437 22.95 116.767 21.46 117.427 20.16C118.107 18.86 119.017 17.86 120.157 17.16C121.317 16.46 122.607 16.11 124.027 16.11C125.267 16.11 126.347 16.36 127.267 16.86C128.207 17.36 128.957 17.99 129.517 18.75V16.38H133.747V33H129.517V30.57C128.977 31.35 128.227 32 127.267 32.52C126.327 33.02 125.237 33.27 123.997 33.27C122.597 33.27 121.317 32.91 120.157 32.19C119.017 31.47 118.107 30.46 117.427 29.16C116.767 27.84 116.437 26.33 116.437 24.63ZM129.517 24.69C129.517 23.67 129.317 22.8 128.917 22.08C128.517 21.34 127.977 20.78 127.297 20.4C126.617 20 125.887 19.8 125.107 19.8C124.327 19.8 123.607 19.99 122.947 20.37C122.287 20.75 121.747 21.31 121.327 22.05C120.927 22.77 120.727 23.63 120.727 24.63C120.727 25.63 120.927 26.51 121.327 27.27C121.747 28.01 122.287 28.58 122.947 28.98C123.627 29.38 124.347 29.58 125.107 29.58C125.887 29.58 126.617 29.39 127.297 29.01C127.977 28.61 128.517 28.05 128.917 27.33C129.317 26.59 129.517 25.71 129.517 24.69ZM142.049 18.96C142.589 18.08 143.289 17.39 144.149 16.89C145.029 16.39 146.029 16.14 147.149 16.14V20.55H146.039C144.719 20.55 143.719 20.86 143.039 21.48C142.379 22.1 142.049 23.18 142.049 24.72V33H137.849V16.38H142.049V18.96ZM165.428 24.33C165.428 24.93 165.388 25.47 165.308 25.95H153.158C153.258 27.15 153.678 28.09 154.418 28.77C155.158 29.45 156.068 29.79 157.148 29.79C158.708 29.79 159.818 29.12 160.478 27.78H165.008C164.528 29.38 163.608 30.7 162.248 31.74C160.888 32.76 159.218 33.27 157.238 33.27C155.638 33.27 154.198 32.92 152.918 32.22C151.658 31.5 150.668 30.49 149.948 29.19C149.248 27.89 148.898 26.39 148.898 24.69C148.898 22.97 149.248 21.46 149.948 20.16C150.648 18.86 151.628 17.86 152.888 17.16C154.148 16.46 155.598 16.11 157.238 16.11C158.818 16.11 160.228 16.45 161.468 17.13C162.728 17.81 163.698 18.78 164.378 20.04C165.078 21.28 165.428 22.71 165.428 24.33ZM161.078 23.13C161.058 22.05 160.668 21.19 159.908 20.55C159.148 19.89 158.218 19.56 157.118 19.56C156.078 19.56 155.198 19.88 154.478 20.52C153.778 21.14 153.348 22.01 153.188 23.13H161.078Z" fill="white"/>
<rect id="Rectangle" x="3" y="6.5" width="36" height="36" rx="12" stroke="white" stroke-width="6"/>
<rect id="Rectangle Copy" x="19.5" y="8" width="18" height="18" rx="9" stroke="white" stroke-width="6"/>
</g>
</svg>
