<svg width="112" height="32" viewBox="0 0 112 32" fill="none" xmlns="http://www.w3.org/2000/svg">
<g id="Logo">
<path id="Square" d="M44.2 22.14C43.2267 22.14 42.3467 21.9733 41.56 21.64C40.7867 21.3067 40.1733 20.8267 39.72 20.2C39.2667 19.5733 39.0333 18.8333 39.02 17.98H42.02C42.06 18.5533 42.26 19.0067 42.62 19.34C42.9933 19.6733 43.5 19.84 44.14 19.84C44.7933 19.84 45.3067 19.6867 45.68 19.38C46.0533 19.06 46.24 18.6467 46.24 18.14C46.24 17.7267 46.1133 17.3867 45.86 17.12C45.6067 16.8533 45.2867 16.6467 44.9 16.5C44.5267 16.34 44.0067 16.1667 43.34 15.98C42.4333 15.7133 41.6933 15.4533 41.12 15.2C40.56 14.9333 40.0733 14.54 39.66 14.02C39.26 13.4867 39.06 12.78 39.06 11.9C39.06 11.0733 39.2667 10.3533 39.68 9.74C40.0933 9.12667 40.6733 8.66 41.42 8.34C42.1667 8.00667 43.02 7.84 43.98 7.84C45.42 7.84 46.5867 8.19333 47.48 8.9C48.3867 9.59333 48.8867 10.5667 48.98 11.82H45.9C45.8733 11.34 45.6667 10.9467 45.28 10.64C44.9067 10.32 44.4067 10.16 43.78 10.16C43.2333 10.16 42.7933 10.3 42.46 10.58C42.14 10.86 41.98 11.2667 41.98 11.8C41.98 12.1733 42.1 12.4867 42.34 12.74C42.5933 12.98 42.9 13.18 43.26 13.34C43.6333 13.4867 44.1533 13.66 44.82 13.86C45.7267 14.1267 46.4667 14.3933 47.04 14.66C47.6133 14.9267 48.1067 15.3267 48.52 15.86C48.9333 16.3933 49.14 17.0933 49.14 17.96C49.14 18.7067 48.9467 19.4 48.56 20.04C48.1733 20.68 47.6067 21.1933 46.86 21.58C46.1133 21.9533 45.2267 22.14 44.2 22.14ZM50.8475 16.44C50.8475 15.3333 51.0742 14.3533 51.5275 13.5C51.9942 12.6333 52.6208 11.96 53.4075 11.48C54.1942 11 55.0608 10.76 56.0075 10.76C56.7942 10.76 57.4875 10.9133 58.0875 11.22C58.7008 11.5133 59.1942 11.8933 59.5675 12.36V10.92H62.3875V27.28H59.5675V20.48C59.1942 20.96 58.6942 21.36 58.0675 21.68C57.4408 22 56.7342 22.16 55.9475 22.16C55.0142 22.16 54.1542 21.92 53.3675 21.44C52.5942 20.9467 51.9808 20.2667 51.5275 19.4C51.0742 18.5333 50.8475 17.5467 50.8475 16.44ZM59.5675 16.46C59.5675 15.78 59.4275 15.1933 59.1475 14.7C58.8675 14.2067 58.5008 13.8333 58.0475 13.58C57.6075 13.3267 57.1342 13.2 56.6275 13.2C56.1342 13.2 55.6608 13.3267 55.2075 13.58C54.7675 13.8333 54.4075 14.2067 54.1275 14.7C53.8475 15.18 53.7075 15.76 53.7075 16.44C53.7075 17.12 53.8475 17.7133 54.1275 18.22C54.4075 18.7133 54.7675 19.0867 55.2075 19.34C55.6608 19.5933 56.1342 19.72 56.6275 19.72C57.1342 19.72 57.6075 19.5933 58.0475 19.34C58.5008 19.0867 58.8675 18.7133 59.1475 18.22C59.4275 17.7267 59.5675 17.14 59.5675 16.46ZM75.5822 10.92V22H72.7622V20.6C72.4022 21.08 71.9289 21.46 71.3422 21.74C70.7689 22.0067 70.1422 22.14 69.4622 22.14C68.5955 22.14 67.8289 21.96 67.1622 21.6C66.4955 21.2267 65.9689 20.6867 65.5822 19.98C65.2089 19.26 65.0222 18.4067 65.0222 17.42V10.92H67.8222V17.02C67.8222 17.9 68.0422 18.58 68.4822 19.06C68.9222 19.5267 69.5222 19.76 70.2822 19.76C71.0555 19.76 71.6622 19.5267 72.1022 19.06C72.5422 18.58 72.7622 17.9 72.7622 17.02V10.92H75.5822ZM77.6248 16.42C77.6248 15.3 77.8448 14.3067 78.2848 13.44C78.7382 12.5733 79.3448 11.9067 80.1048 11.44C80.8782 10.9733 81.7382 10.74 82.6848 10.74C83.5115 10.74 84.2315 10.9067 84.8448 11.24C85.4715 11.5733 85.9715 11.9933 86.3448 12.5V10.92H89.1648V22H86.3448V20.38C85.9848 20.9 85.4848 21.3333 84.8448 21.68C84.2182 22.0133 83.4915 22.18 82.6648 22.18C81.7315 22.18 80.8782 21.94 80.1048 21.46C79.3448 20.98 78.7382 20.3067 78.2848 19.44C77.8448 18.56 77.6248 17.5533 77.6248 16.42ZM86.3448 16.46C86.3448 15.78 86.2115 15.2 85.9448 14.72C85.6782 14.2267 85.3182 13.8533 84.8648 13.6C84.4115 13.3333 83.9248 13.2 83.4048 13.2C82.8848 13.2 82.4048 13.3267 81.9648 13.58C81.5248 13.8333 81.1648 14.2067 80.8848 14.7C80.6182 15.18 80.4848 15.7533 80.4848 16.42C80.4848 17.0867 80.6182 17.6733 80.8848 18.18C81.1648 18.6733 81.5248 19.0533 81.9648 19.32C82.4182 19.5867 82.8982 19.72 83.4048 19.72C83.9248 19.72 84.4115 19.5933 84.8648 19.34C85.3182 19.0733 85.6782 18.7 85.9448 18.22C86.2115 17.7267 86.3448 17.14 86.3448 16.46ZM94.6995 12.64C95.0595 12.0533 95.5262 11.5933 96.0995 11.26C96.6862 10.9267 97.3529 10.76 98.0995 10.76V13.7H97.3595C96.4795 13.7 95.8129 13.9067 95.3595 14.32C94.9195 14.7333 94.6995 15.4533 94.6995 16.48V22H91.8995V10.92H94.6995V12.64ZM110.285 16.22C110.285 16.62 110.259 16.98 110.205 17.3H102.105C102.172 18.1 102.452 18.7267 102.945 19.18C103.439 19.6333 104.045 19.86 104.765 19.86C105.805 19.86 106.545 19.4133 106.985 18.52H110.005C109.685 19.5867 109.072 20.4667 108.165 21.16C107.259 21.84 106.145 22.18 104.825 22.18C103.759 22.18 102.799 21.9467 101.945 21.48C101.105 21 100.445 20.3267 99.9655 19.46C99.4988 18.5933 99.2655 17.5933 99.2655 16.46C99.2655 15.3133 99.4988 14.3067 99.9655 13.44C100.432 12.5733 101.085 11.9067 101.925 11.44C102.765 10.9733 103.732 10.74 104.825 10.74C105.879 10.74 106.819 10.9667 107.645 11.42C108.485 11.8733 109.132 12.52 109.585 13.36C110.052 14.1867 110.285 15.14 110.285 16.22ZM107.385 15.42C107.372 14.7 107.112 14.1267 106.605 13.7C106.099 13.26 105.479 13.04 104.745 13.04C104.052 13.04 103.465 13.2533 102.985 13.68C102.519 14.0933 102.232 14.6733 102.125 15.42H107.385Z" fill="#44444F"/>
<rect id="Rectangle" x="2" y="3" width="24" height="24" rx="8" stroke="#0073FF" stroke-width="4"/>
<rect id="Rectangle Copy" x="13" y="4" width="12" height="12" rx="6" stroke="#0073FF" stroke-width="4"/>
</g>
</svg>
